<?xml version="1.0" standalone="no"?>
<!DOCTYPE svg PUBLIC "-//W3C//DTD SVG 20010904//EN"
 "http://www.w3.org/TR/2001/REC-SVG-20010904/DTD/svg10.dtd">
<svg version="1.0" xmlns="http://www.w3.org/2000/svg"
 width="700.000000pt" height="700.000000pt" viewBox="0 0 700.000000 700.000000"
 preserveAspectRatio="xMidYMid meet">
<metadata>
Created by potrace 1.11, written by Peter Selinger 2001-2013
</metadata>
<g transform="translate(0.000000,700.000000) scale(0.100000,-0.100000)"
fill="#000000" stroke="none">
<path d="M2927 6530 c-37 -32 -38 -32 -132 -31 -71 1 -116 -4 -175 -20 -76
-21 -79 -23 -73 -47 5 -21 3 -24 -11 -19 -34 13 -96 19 -130 13 -50 -10 -172
-93 -259 -177 -67 -67 -76 -80 -86 -129 -13 -60 -44 -119 -104 -194 -61 -78
-85 -136 -102 -243 -9 -54 -27 -136 -40 -183 -13 -47 -27 -107 -31 -135 -4
-27 -18 -81 -30 -119 -29 -84 -30 -141 -7 -303 15 -105 16 -139 5 -250 -6 -70
-22 -186 -36 -258 -13 -71 -28 -168 -31 -215 -11 -143 27 -356 61 -343 20 7
104 -81 145 -154 57 -102 90 -144 108 -141 59 10 140 -147 165 -317 25 -178
31 -317 16 -395 -12 -65 -12 -75 19 -203 34 -149 40 -261 20 -403 -6 -43 -8
-98 -4 -122 5 -37 10 -43 26 -39 17 5 19 0 19 -41 0 -85 28 -205 74 -324 25
-64 52 -150 60 -190 19 -99 29 -121 86 -197 26 -36 53 -78 60 -92 9 -20 17
-24 40 -21 23 3 33 -3 56 -34 64 -83 94 -111 132 -122 47 -14 55 -23 107 -114
36 -63 45 -73 90 -90 60 -22 105 -68 105 -106 0 -18 3 -23 9 -14 6 11 10 10
15 -3 6 -16 9 -15 39 2 32 20 33 20 49 -1 15 -20 16 -20 36 -3 19 17 20 17 26
-10 13 -51 36 -74 110 -107 40 -19 77 -39 81 -45 4 -8 11 -9 19 -2 16 13 95 8
125 -8 13 -7 49 -33 80 -56 60 -47 98 -59 204 -70 57 -6 73 -4 101 13 25 15
37 17 45 9 8 -8 11 -6 11 6 0 14 10 17 49 17 28 0 53 -5 56 -10 5 -8 11 -8 20
0 10 8 17 3 32 -20 l20 -31 31 69 c18 38 32 74 32 80 0 20 21 24 46 8 23 -16
25 -16 34 9 6 15 10 29 10 33 0 17 76 118 87 115 6 -2 17 15 25 39 14 41 24
50 88 78 27 12 50 74 52 139 2 59 2 61 15 37 23 -44 41 -31 67 48 22 66 35 88
47 81 11 -7 86 146 120 247 20 57 27 68 49 70 22 3 26 9 30 54 6 62 13 71 93
123 34 22 70 54 80 70 16 28 16 33 3 60 -15 27 -14 33 11 88 14 32 34 68 45
79 19 21 19 23 1 55 -27 51 -23 201 10 367 18 85 29 183 33 270 3 81 13 168
24 212 21 83 21 211 0 249 -24 46 -50 135 -44 153 3 11 1 25 -6 33 -6 7 -18
71 -25 142 -17 146 -14 132 -56 323 -41 187 -45 331 -13 400 12 25 27 74 34
110 6 36 25 119 41 185 40 164 39 223 -6 300 -80 136 -94 175 -104 285 -12
117 -16 136 -71 300 -50 151 -60 211 -63 382 -2 143 -2 143 -39 219 -49 99
-126 177 -222 224 -99 49 -172 65 -310 71 -119 4 -119 4 -137 33 -39 65 -246
183 -380 217 -82 21 -228 13 -325 -18 -103 -32 -158 -27 -305 27 -68 26 -149
49 -180 52 -52 5 -58 3 -92 -27z m1983 -884 c0 -8 -11 -28 -25 -43 l-25 -28
23 42 c24 47 27 50 27 29z m-752 -231 c-3 -52 -11 -87 -34 -135 -36 -77 -114
-174 -172 -214 -24 -16 -41 -31 -39 -33 8 -7 99 37 143 69 45 32 79 90 119
201 22 61 57 103 98 116 61 21 207 -33 288 -106 67 -61 72 -77 64 -222 l-7
-126 37 -50 c21 -28 58 -71 82 -98 62 -67 71 -94 65 -196 -4 -76 -1 -97 22
-165 15 -43 34 -131 43 -195 23 -181 50 -339 71 -421 52 -200 81 -342 86 -415
4 -44 13 -118 21 -165 32 -182 13 -269 -81 -360 -65 -64 -94 -115 -94 -165 0
-36 -28 -75 -54 -75 -7 0 -19 -7 -26 -15 -10 -12 -16 -10 -37 15 -16 19 -42
34 -71 42 -34 8 -63 27 -109 70 -69 64 -67 64 -168 27 -27 -11 -69 -19 -92
-19 -25 0 -66 -12 -105 -30 -34 -16 -69 -30 -76 -30 -7 0 -30 -9 -50 -19 -30
-15 -47 -37 -81 -100 -47 -87 -82 -118 -170 -151 -28 -11 -69 -20 -91 -20 -34
0 -48 8 -111 65 -111 100 -124 104 -287 98 -126 -5 -142 -4 -186 16 -74 32
-98 28 -143 -23 -25 -29 -62 -54 -105 -74 -93 -42 -176 -99 -193 -133 -20 -37
-19 -66 3 -78 35 -21 0 -10 -49 15 -130 65 -199 170 -239 364 -11 53 -30 106
-50 140 -29 49 -37 81 -72 290 -22 129 -41 264 -42 300 -1 36 -18 138 -39 226
-29 127 -39 199 -48 335 -6 96 -20 215 -30 264 -34 152 -39 188 -40 257 -1
120 45 208 108 208 14 0 70 -16 126 -35 56 -19 116 -36 132 -37 l30 -3 -1 58
c-1 31 1 57 5 57 3 -1 17 -7 31 -15 38 -22 43 -18 21 14 -41 57 -71 135 -71
184 0 65 27 114 99 178 82 75 168 124 264 149 146 38 211 61 252 88 22 15 44
30 50 34 16 10 0 -117 -20 -165 -22 -53 -79 -104 -176 -160 -78 -44 -81 -47
-44 -42 37 6 39 5 21 -9 -48 -39 -129 -61 -222 -61 l-91 0 10 -33 c14 -45 72
-110 116 -128 60 -26 165 -20 263 14 182 65 326 122 392 156 87 46 110 47 70
4 l-29 -31 50 34 c147 99 190 192 150 324 -8 27 -13 50 -12 50 14 8 111 24
119 19 5 -3 26 1 46 9 21 9 76 27 123 41 82 24 191 89 215 127 14 23 26 -33
22 -106z m284 -2982 c8 -16 18 -52 22 -82 4 -30 12 -63 17 -73 7 -14 6 -18 -5
-18 -14 0 -19 -14 -32 -100 -8 -56 -24 -87 -63 -124 -18 -18 -37 -50 -46 -82
-35 -121 -199 -245 -328 -249 -38 -2 -64 -8 -77 -20 -12 -10 -24 -14 -32 -9
-7 5 -22 10 -33 11 -87 10 -101 9 -122 -10 -22 -20 -24 -20 -63 -2 -33 15 -45
16 -66 6 -14 -6 -31 -8 -37 -4 -6 4 -22 7 -35 8 -13 0 -31 10 -39 20 -14 20
-15 19 -37 -7 -29 -37 -63 -36 -111 2 -51 41 -84 48 -103 24 -13 -17 -14 -15
-8 24 7 50 -3 74 -54 122 -35 33 -37 39 -44 117 -3 46 -11 94 -16 107 -11 31
-2 39 69 60 66 19 62 19 55 1 -4 -10 3 -18 21 -25 37 -14 42 -13 41 12 -1 30
61 52 125 44 35 -5 49 -3 59 9 19 23 54 18 95 -15 l38 -31 27 26 c31 30 85 33
132 9 29 -15 31 -15 46 8 48 68 89 83 128 47 l23 -22 31 31 c36 36 66 48 84
33 10 -8 16 -5 26 13 14 27 40 38 62 25 10 -6 26 1 49 21 19 16 44 29 57 30
12 0 25 7 28 15 4 8 13 15 20 15 12 0 12 -4 0 -27 -19 -36 -106 -128 -128
-136 -10 -4 -18 -13 -18 -21 0 -28 -28 -46 -55 -36 -21 8 -25 6 -25 -8 0 -31
-29 -61 -65 -68 -19 -3 -35 -10 -35 -14 0 -15 -114 -52 -142 -46 -16 3 -31 0
-38 -9 -26 -31 -134 -39 -168 -12 -8 6 -35 10 -61 8 -48 -2 -73 10 -83 41 -3
9 -9 8 -22 -5 -23 -23 -69 -22 -91 3 -20 22 -75 24 -75 4 0 -14 10 -18 95 -35
33 -6 102 -24 154 -40 205 -63 345 -28 574 147 98 75 161 144 189 206 10 20
29 45 43 54 49 32 20 47 -37 18 -32 -17 -214 -74 -236 -74 -7 0 -10 5 -7 10 3
6 19 10 34 10 15 0 36 9 47 21 11 12 26 18 37 15 18 -4 36 1 117 37 52 23 74
21 92 -10z m-438 -99 c11 -7 18 -15 15 -18 -6 -5 -158 -54 -224 -72 -36 -9
-129 -19 -230 -23 -93 -4 -179 -12 -190 -18 -11 -6 -38 -16 -60 -22 l-40 -10
25 19 c14 11 41 24 60 29 86 21 187 41 206 41 13 0 24 8 27 20 5 20 5 20 61
-1 l56 -22 47 31 c33 22 50 28 55 19 5 -8 12 -6 26 7 12 10 21 13 23 7 6 -18
77 -1 82 20 5 20 29 17 61 -7z"/>
<path d="M4495 4297 c-16 -8 -65 -16 -108 -20 -43 -3 -84 -10 -90 -15 -22 -17
-141 -53 -188 -57 -102 -8 -184 -42 -200 -83 l-11 -27 -18 23 c-24 29 -27 28
-35 -7 -7 -33 -39 -66 -54 -56 -8 4 -8 -2 0 -22 6 -15 11 -52 12 -80 1 -48 3
-53 24 -53 13 0 54 15 91 34 37 18 100 41 141 50 41 9 120 37 177 62 106 46
158 54 211 33 15 -6 50 -11 76 -10 27 1 53 -1 58 -5 5 -3 40 -7 77 -9 37 -3
78 -6 92 -7 14 -2 36 2 50 9 20 10 27 10 42 -4 17 -15 18 -14 18 26 0 60 -22
95 -91 146 -89 65 -215 98 -274 72z"/>
<path d="M2485 4062 c-45 -21 -119 -98 -162 -170 -27 -45 -28 -53 -28 -165 l0
-118 22 28 c13 15 23 34 23 41 0 7 21 35 46 62 44 47 50 50 98 51 47 1 49 2
24 12 -60 23 -30 33 142 47 69 5 209 14 312 20 162 8 192 8 224 -6 27 -11 53
-14 91 -9 42 5 56 3 69 -10 37 -37 56 6 39 88 -12 59 -27 79 -52 70 -8 -3 -22
2 -32 11 -11 10 -20 13 -22 7 -3 -6 -29 0 -64 14 -48 20 -66 23 -89 15 -15 -5
-32 -7 -37 -4 -14 8 -251 26 -414 30 -131 4 -155 2 -190 -14z"/>
<path d="M4240 3959 c-70 -14 -145 -48 -171 -77 -17 -19 -18 -22 -4 -11 57 46
159 79 248 79 31 0 57 5 57 10 0 12 -67 11 -130 -1z"/>
<path d="M4306 3932 c-4 -7 -14 -11 -22 -8 -8 3 -14 1 -14 -5 0 -15 -43 -28
-57 -17 -8 6 -15 3 -23 -12 -6 -12 -14 -19 -17 -16 -7 7 -27 -14 -36 -38 -11
-27 16 -62 58 -76 19 -6 33 -15 31 -18 -7 -11 76 -5 122 9 34 10 48 10 63 1
16 -10 19 -9 19 3 0 11 11 15 43 15 28 0 37 3 28 9 -11 7 -7 13 18 25 17 9 31
21 31 26 0 13 -1 13 -40 -6 -18 -9 -47 -20 -65 -24 -33 -7 -33 -7 -37 34 -3
22 -4 42 -4 42 2 3 121 -17 136 -23 8 -3 20 -7 27 -9 6 -1 28 -14 47 -29 52
-39 44 -14 -8 28 -32 27 -56 38 -92 42 -27 3 -55 6 -61 7 -7 1 -13 8 -13 17 0
11 -3 12 -11 4 -8 -8 -19 -9 -37 -2 -15 6 -36 8 -48 5 -16 -4 -24 -1 -26 11
-3 14 -5 15 -12 5z m9 -97 c0 -10 -73 -17 -89 -8 -4 3 -2 9 5 14 18 12 84 7
84 -6z"/>
<path d="M4614 3891 c7 -11 46 -35 46 -28 0 3 -12 12 -26 22 -15 9 -23 12 -20
6z"/>
<path d="M2850 3804 c-22 -9 -26 -12 -10 -9 14 2 68 5 120 6 65 1 86 4 65 9
-49 12 -138 10 -175 -6z"/>
<path d="M2980 3746 c-3 -3 -35 -7 -70 -9 -77 -5 -127 -22 -140 -48 -6 -10
-29 -23 -51 -29 -27 -7 -39 -16 -36 -24 3 -8 0 -19 -6 -25 -16 -16 1 -27 23
-13 23 14 33 15 26 3 -4 -5 4 -7 16 -3 13 3 17 7 10 10 -10 3 -9 9 4 23 24 26
36 24 56 -12 l18 -31 -30 7 c-23 5 -29 3 -25 -7 6 -14 70 -15 194 -2 68 7 106
40 97 85 -3 16 -4 29 -3 29 2 0 25 -7 51 -16 26 -9 49 -14 52 -12 13 13 -12
37 -44 43 -20 3 -47 13 -59 21 -13 8 -23 10 -23 4 0 -13 -47 -13 -52 1 -2 5
-6 8 -8 5z m-2 -62 c36 -10 25 -24 -17 -24 -40 0 -62 14 -39 23 18 8 30 8 56
1z"/>
<path d="M3274 3738 c10 -7 36 -28 58 -45 22 -18 43 -33 46 -33 12 1 -62 60
-93 75 -16 9 -22 10 -11 3z"/>
<path d="M2643 3710 c-48 -28 -74 -50 -57 -50 8 0 114 71 114 77 0 5 -3 4 -57
-27z"/>
</g>
</svg>
